<svg width="219" height="127" viewBox="0 0 219 127" fill="none" xmlns="http://www.w3.org/2000/svg">
<path d="M0.179688 124.953C0.179688 125.782 0.85126 126.453 1.67969 126.453C2.50811 126.453 3.17969 125.782 3.17969 124.953H0.179688ZM70.2771 89.092L70.1899 90.5895L70.2771 89.092ZM105.692 104.121L104.979 105.441L105.692 104.121ZM176.893 96.7553L177.836 97.9222L176.893 96.7553ZM208.979 0.684945C208.393 0.0991589 207.444 0.0991589 206.858 0.684945L197.312 10.2309C196.726 10.8167 196.726 11.7664 197.312 12.3522C197.898 12.938 198.847 12.938 199.433 12.3522L207.918 3.86693L216.404 12.3522C216.99 12.938 217.939 12.938 218.525 12.3522C219.111 11.7664 219.111 10.8167 218.525 10.2309L208.979 0.684945ZM3.17969 124.953C3.17969 110.111 13.9018 101.197 27.9867 96.0967C42.051 91.0042 58.9818 89.9366 70.1899 90.5895L70.3644 87.5946C58.8995 86.9267 41.5316 88.0016 26.9654 93.2759C12.4198 98.5427 0.179688 108.219 0.179688 124.953H3.17969ZM70.1899 90.5895C76.504 90.9573 82.3529 93.1096 88.0704 95.9718C90.9289 97.4027 93.7346 99.0006 96.5445 100.631C99.3425 102.254 102.157 103.917 104.979 105.441L106.405 102.801C103.635 101.306 100.878 99.6764 98.05 98.0359C95.2341 96.4022 92.3604 94.7644 89.4133 93.2891C83.5196 90.3387 77.2525 87.9958 70.3644 87.5946L70.1899 90.5895ZM104.979 105.441C117.843 112.387 130.407 115.11 142.628 113.761C154.842 112.412 166.584 107.01 177.836 97.9222L175.951 95.5884C165.042 104.399 153.825 109.506 142.299 110.779C130.78 112.051 118.824 109.507 106.405 102.801L104.979 105.441ZM177.836 97.9222C207.092 74.292 209.418 35.3775 209.418 1.74561H206.418C206.418 35.5358 203.961 72.9646 175.951 95.5884L177.836 97.9222Z"
stroke="currentColor" 
    strokeWidth="2" 
    strokeLinecap="round" 
    strokeLinejoin="round"
    pathLength="1"/>
</svg>
